<?xml version="1.0" encoding="iso-8859-1"?>
<!-- Generator: Adobe Illustrator 19.0.0, SVG Export Plug-In . SVG Version: 6.00 Build 0)  -->
<svg version="1.1" id="Layer_1" xmlns="http://www.w3.org/2000/svg" xmlns:xlink="http://www.w3.org/1999/xlink" x="0px" y="0px"
	 viewBox="0 0 512.213 512.213" style="enable-background:new 0 0 512.213 512.213;" xml:space="preserve">
<g transform="translate(-18 -10)">
	<path style="fill:#FD9808;" d="M163.173,104.08v-51.2h17.067V18.747H77.84V52.88h17.067v110.933l-47.787,40.96
		c-6.827,6.827-2.56,18.773,6.827,18.773h40.96v256H77.84v34.133h392.533v-34.133h-17.067v-256h40.96
		c9.387,0,13.653-11.947,6.827-17.92L304.827,31.547c-17.067-16.213-44.373-16.213-61.44,0L163.173,104.08z"/>
	<path style="fill:#FFDD09;" d="M163.173,104.08v-51.2h17.067V18.747H77.84V52.88h17.067v110.933l-47.787,40.96
		c-6.827,6.827-2.56,18.773,6.827,18.773h40.96v256H77.84v34.133h366.933v-34.133h-17.067v-256h40.96
		c9.387,0,13.653-11.947,6.827-17.92L279.227,31.547c-17.067-16.213-22.187-16.213-39.253,0L163.173,104.08z"/>
	<g>
		<path style="fill:#54C9FD;" d="M325.307,257.68H163.173v51.2H313.36c6.827,0,11.947,5.12,11.947,11.947v47.787h51.2V308.88
			C376.507,280.72,353.467,257.68,325.307,257.68"/>
		<path style="fill:#54C9FD;" d="M367.973,453.947L367.973,453.947c-9.387,9.387-24.747,9.387-34.133,0s-9.387-24.747,0-34.133
			l17.067-17.067l17.067,17.067C377.36,429.2,377.36,444.56,367.973,453.947"/>
	</g>
	<path d="M470.373,522.213H77.84c-5.12,0-8.533-3.413-8.533-8.533v-34.133c0-5.12,3.413-8.533,8.533-8.533h8.533V232.08H53.947
		c-7.68,0-15.36-5.12-17.92-11.947c-2.56-7.68-0.853-15.36,5.12-21.333l45.227-39.253V61.413H77.84c-5.12,0-8.533-3.413-8.533-8.533
		V18.747c0-5.12,3.413-8.533,8.533-8.533h102.4c5.12,0,8.533,3.413,8.533,8.533V52.88c0,5.12-3.413,8.533-8.533,8.533h-8.533v23.04
		l65.707-59.733c20.48-19.627,52.907-19.627,73.387,0L507.067,198.8c5.973,5.12,7.68,13.653,5.12,20.48
		c-2.56,7.68-9.387,11.947-17.92,11.947H461.84V470.16h8.533c2.56,0,4.267,0.853,5.973,2.56c1.707,1.707,2.56,3.413,2.56,5.973
		v34.133C478.907,518.8,474.64,522.213,470.373,522.213z M86.373,505.147H461.84V488.08h-8.533c-5.12,0-8.533-3.413-8.533-8.533
		v-256c0-5.12,3.413-8.533,8.533-8.533h40.96c0,0,0.853,0,1.707-0.853c0.853-0.853,0-1.707-0.853-1.707L298.853,38.373
		c-14.507-13.653-35.84-13.653-49.493,0l-80.213,73.387c-2.56,2.56-5.973,2.56-9.387,1.707c-3.413-2.56-5.12-5.973-5.12-9.387v-51.2
		c0-5.12,3.413-8.533,8.533-8.533h8.533V27.28H86.373v17.067h8.533c5.12,0,8.533,3.413,8.533,8.533v110.933
		c0,2.56-0.853,5.12-2.56,6.827L53.093,211.6c-0.853,0.853-0.853,1.707-0.853,2.56s0.853,0.853,1.707,0.853h40.96
		c5.12,0,8.533,3.413,8.533,8.533v256c0,5.12-3.413,8.533-8.533,8.533h-8.533V505.147z"/>
	<path d="M376.507,377.147h-51.2c-5.12,0-8.533-3.413-8.533-8.533v-47.787c0-1.707-1.707-3.413-3.413-3.413H163.173
		c-5.12,0-8.533-3.413-8.533-8.533v-51.2c0-5.12,3.413-8.533,8.533-8.533h162.133c33.28,0,59.733,26.453,59.733,59.733v59.733
		C385.04,373.733,381.627,377.147,376.507,377.147z M333.84,360.08h34.133v-51.2c0-23.893-18.773-42.667-42.667-42.667h-153.6
		v34.133H313.36c11.093,0,20.48,9.387,20.48,20.48V360.08z"/>
	<path d="M350.907,469.307c-8.533,0-17.067-3.413-23.04-9.387c-12.8-12.8-12.8-33.28,0-46.08l17.067-17.067
		c3.413-3.413,8.533-3.413,11.947,0l17.067,17.067c12.8,12.8,12.8,33.28,0,46.08C367.973,466.747,359.44,469.307,350.907,469.307z
		 M350.907,414.693l-11.093,11.093c-5.973,5.973-5.973,16.213,0,22.187c5.973,5.973,16.213,5.973,22.187,0
		c5.973-5.973,5.973-16.213,0-22.187L350.907,414.693z"/>
	<path d="M282.64,266.213c-5.12,0-8.533-3.413-8.533-8.533v-51.2c0-5.12,3.413-8.533,8.533-8.533c5.12,0,8.533,3.413,8.533,8.533
		v51.2C291.173,262.8,287.76,266.213,282.64,266.213z"/>
	<path d="M248.507,215.013c-5.12,0-8.533-3.413-8.533-8.533c0-5.12,3.413-8.533,8.533-8.533h68.267l0,0
		c5.12,0,8.533,3.413,8.533,8.533c0,5.12-3.413,8.533-8.533,8.533H248.507L248.507,215.013z"/>
</g>
<g>
</g>
<g>
</g>
<g>
</g>
<g>
</g>
<g>
</g>
<g>
</g>
<g>
</g>
<g>
</g>
<g>
</g>
<g>
</g>
<g>
</g>
<g>
</g>
<g>
</g>
<g>
</g>
<g>
</g>
</svg>
