<?xml version="1.0" encoding="iso-8859-1"?>
<!-- Generator: Adobe Illustrator 21.0.0, SVG Export Plug-In . SVG Version: 6.00 Build 0)  -->
<svg xmlns="http://www.w3.org/2000/svg" xmlns:xlink="http://www.w3.org/1999/xlink" version="1.1" id="Capa_1" x="0px" y="0px" viewBox="0 0 512 512" style="enable-background:new 0 0 512 512;" xml:space="preserve" width="512" height="512">
<g>
	<polygon style="fill:#AEADB3;" points="289.39,461.24 390.34,512 323.56,512 256,478.03 188.44,512 121.66,512 222.61,461.24    91.97,395.54 105.45,368.74 256,444.45 406.55,368.74 420.03,395.54  "/>
	<g>
		<path style="fill:#78777F;" d="M82.161,285.861c0,26.979,21.948,48.927,48.927,48.927s48.927-21.948,48.927-48.927v-39.166H82.161    V285.861z"/>
		<path style="fill:#57555C;" d="M331.985,246.695v39.166c0,26.979,21.948,48.927,48.927,48.927s48.927-21.948,48.927-48.927    v-39.166H331.985z"/>
	</g>
	<polygon style="fill:#E1E4FB;" points="413.29,134.06 98.71,134.06 144.21,15 367.79,15  "/>
	<polygon style="fill:#C5C9F7;" points="413.29,134.06 256,134.06 256,15 367.79,15  "/>
	<path style="fill:#FFC473;" d="M378.11,0H133.89L76.92,149.06h358.16L378.11,0z M120.5,119.06L154.54,30h202.92l34.04,89.06H120.5z   "/>
	<polygon style="fill:#FFAA20;" points="435.08,149.06 256,149.06 256,119.06 391.5,119.06 357.46,30 256,30 256,0 378.11,0  "/>
	<path style="fill:#FFAA20;" d="M456.79,173.57v103.12H55.21V173.57c0-30.06,24.45-54.51,54.51-54.51h292.56   C432.34,119.06,456.79,143.51,456.79,173.57z"/>
	<path style="fill:#FF8900;" d="M456.79,173.57v103.12H256V119.06h146.28C432.34,119.06,456.79,143.51,456.79,173.57z"/>
	<rect x="198.71" y="197.88" style="fill:#C5C9F7;" width="114.58" height="78.81"/>
	<g>
		<circle style="fill:#FFC473;" cx="128.418" cy="205.542" r="27.042"/>
		<circle style="fill:#FFAA20;" cx="383.582" cy="205.542" r="27.042"/>
	</g>
	<rect x="256" y="197.88" style="fill:#A7AFF2;" width="57.29" height="78.81"/>
	<polygon style="fill:#8B8992;" points="289.39,461.24 390.34,512 323.56,512 256,478.03 256,444.45 406.55,368.74 420.03,395.54     "/>
	<rect y="319.67" style="fill:#FF633E;" width="512" height="77.47"/>
	<rect x="256" y="319.67" style="fill:#E70020;" width="256" height="77.47"/>
</g>















</svg>
