<?xml version="1.0" encoding="iso-8859-1"?>
<!-- Generator: Adobe Illustrator 19.0.0, SVG Export Plug-In . SVG Version: 6.00 Build 0)  -->
<svg version="1.1" id="Capa_1" xmlns="http://www.w3.org/2000/svg" xmlns:xlink="http://www.w3.org/1999/xlink" x="0px" y="0px"
	 viewBox="0 0 512.001 512.001" style="enable-background:new 0 0 512.001 512.001;" xml:space="preserve">
<g>
	<g>
		<ellipse style="fill:#FFCEAC;" cx="170.379" cy="212.209" rx="29.173" ry="31.612"/>
		<ellipse style="fill:#FFCEAC;" cx="255.998" cy="172.689" rx="29.173" ry="31.612"/>
		<ellipse style="fill:#FFCEAC;" cx="341.617" cy="212.209" rx="29.173" ry="31.612"/>
		<ellipse style="fill:#FFCEAC;" cx="255.998" cy="312.684" rx="58.006" ry="58.236"/>
	</g>
	<path style="fill:#FD4A4A;" d="M341.618,180.595c16.109,0,29.169,14.154,29.169,31.612s-13.06,31.611-29.169,31.611
		s-29.168-14.153-29.168-31.611S325.509,180.595,341.618,180.595L341.618,180.595z M256.001,254.448
		c32.032,0,58.001,26.074,58.001,58.237c0,32.163-25.969,58.237-58.001,58.237c-32.033,0-58.002-26.074-58.002-58.237
		C198,280.521,223.968,254.448,256.001,254.448L256.001,254.448z M207.246,456.207c26.815,28.185,70.695,28.185,97.511,0
		l155.131-163.053c56.069-58.933,56.068-155.366-0.001-214.3c-56.068-58.932-147.817-58.932-203.885,0
		c-56.07-58.932-147.818-58.932-203.888,0.001c-56.068,58.933-56.068,155.366,0,214.299L207.246,456.207L207.246,456.207z
		 M285.17,172.692c0,17.459-13.06,31.612-29.169,31.612s-29.169-14.153-29.169-31.612c0-17.459,13.06-31.612,29.169-31.612
		S285.17,155.233,285.17,172.692L285.17,172.692z M170.383,180.595c16.11,0,29.17,14.154,29.17,31.612s-13.06,31.611-29.17,31.611
		c-16.108,0-29.168-14.153-29.168-31.611S154.274,180.595,170.383,180.595z"/>
</g>
<path d="M467.131,71.964c-29.023-30.506-67.799-47.305-109.186-47.305c-38.035,0-73.862,14.187-101.943,40.162
	C227.919,38.845,192.092,24.66,154.057,24.66c-41.386,0-80.163,16.8-109.187,47.305c-59.826,62.882-59.826,165.199,0,228.08
	l155.132,163.052c14.875,15.635,34.763,24.245,55.999,24.245s41.123-8.61,55.999-24.245l155.131-163.053
	C526.958,237.163,526.958,134.847,467.131,71.964z M452.645,286.263L297.514,449.315c-11.063,11.629-25.807,18.034-41.512,18.034
	s-30.45-6.404-41.513-18.034L59.357,286.263c-52.596-55.283-52.596-145.234,0-200.516c25.212-26.499,58.844-41.093,94.701-41.093
	c35.856,0,69.489,14.593,94.701,41.093c1.888,1.984,4.506,3.106,7.243,3.106s5.356-1.123,7.243-3.106
	c25.211-26.499,58.843-41.093,94.7-41.093c35.856,0,69.489,14.593,94.7,41.093C505.241,141.029,505.241,230.98,452.645,286.263z"/>
<path d="M162.75,69.524c-0.068-5.479-4.531-9.873-9.994-9.873c-0.043,0-0.086,0-0.129,0.001
	c-31.16,0.391-60.425,13.33-82.406,36.431c-0.842,0.885-1.67,1.782-2.477,2.681c-0.57,0.636-1.133,1.277-1.689,1.924
	c-3.6,4.186-3.126,10.498,1.06,14.099c1.888,1.624,4.207,2.418,6.515,2.418c2.812,0,5.607-1.18,7.584-3.478
	c0.465-0.541,0.936-1.077,1.418-1.614c0.679-0.758,1.372-1.508,2.076-2.248c18.234-19.164,42.444-29.897,68.17-30.221
	C158.399,79.576,162.819,75.044,162.75,69.524z"/>
<path d="M62.149,122.31c-4.951-2.45-10.946-0.422-13.395,4.526l-0.105,0.216c-2.408,4.969-0.334,10.948,4.635,13.358
	c1.405,0.682,2.891,1.004,4.354,1.004c3.71,0,7.275-2.074,9.003-5.638l0.035-0.071C69.123,130.756,67.096,124.758,62.149,122.31z"/>
<path d="M256.001,244.45c-37.495,0-67.999,30.61-67.999,68.234s30.505,68.234,67.999,68.234c37.494,0,67.998-30.611,67.998-68.234
	S293.495,244.45,256.001,244.45z M256.001,360.924c-26.47,0-48.004-21.641-48.004-48.239c0-26.599,21.535-48.238,48.004-48.238
	s48.003,21.64,48.003,48.238C304.005,339.284,282.471,360.924,256.001,360.924z"/>
<path d="M256.001,214.301c21.597,0,39.166-18.665,39.166-41.609s-17.57-41.61-39.166-41.61s-39.166,18.666-39.166,41.61
	C216.835,195.635,234.406,214.301,256.001,214.301z M256.001,151.077c10.57,0,19.171,9.697,19.171,21.615
	c0,11.918-8.601,21.614-19.171,21.614c-10.57,0-19.171-9.696-19.171-21.614S245.431,151.077,256.001,151.077z"/>
<path d="M341.618,170.597c-21.596,0-39.165,18.666-39.165,41.61s17.57,41.609,39.165,41.609c21.597,0,39.166-18.665,39.166-41.609
	C380.785,189.264,363.214,170.597,341.618,170.597z M341.618,233.821c-10.57,0-19.17-9.696-19.17-21.614
	c0-11.918,8.6-21.615,19.17-21.615c10.57,0,19.171,9.697,19.171,21.615C360.79,224.125,352.189,233.821,341.618,233.821z"/>
<path d="M209.55,212.207c0-22.943-17.57-41.61-39.167-41.61c-21.596,0-39.165,18.666-39.165,41.61s17.57,41.609,39.165,41.609
	C191.98,253.816,209.55,235.15,209.55,212.207z M170.383,233.821c-10.57,0-19.17-9.696-19.17-21.614
	c0-11.918,8.6-21.615,19.17-21.615c10.571,0,19.172,9.697,19.172,21.615C189.554,224.125,180.955,233.821,170.383,233.821z"/>
<g>
</g>
<g>
</g>
<g>
</g>
<g>
</g>
<g>
</g>
<g>
</g>
<g>
</g>
<g>
</g>
<g>
</g>
<g>
</g>
<g>
</g>
<g>
</g>
<g>
</g>
<g>
</g>
<g>
</g>
</svg>
