<?xml version="1.0"?>
<svg xmlns="http://www.w3.org/2000/svg" xmlns:xlink="http://www.w3.org/1999/xlink" version="1.1" id="Capa_1" x="0px" y="0px" viewBox="0 0 512 512" style="enable-background:new 0 0 512 512;" xml:space="preserve" width="512px" height="512px" class=""><g transform="matrix(0.9999 0 0 0.9999 0.0256 0.0256)"><path style="fill:#007C07" d="M335.448,35.31c-51.571,17.214-107.326,17.214-158.897,0l0,0v123.586h158.897V35.31z" data-original="#75462E" class="" data-old_color="#08830F"/><path id="SVGCleanerId_0" style="fill:#259E66" d="M397.241,35.31h-61.793c0,43.882-35.566,79.448-79.448,79.448  s-79.448-35.566-79.448-79.448h-61.793L0,123.586l61.793,79.448l52.966-38.841V476.69h282.483V164.193l52.966,38.841L512,123.586  L397.241,35.31z" data-original="#DE4C3C" class="" data-old_color="#259e66"/><g>
	<path id="SVGCleanerId_0_1_" style="fill:#259E66" d="M397.241,35.31h-61.793c0,43.882-35.566,79.448-79.448,79.448   s-79.448-35.566-79.448-79.448h-61.793L0,123.586l61.793,79.448l52.966-38.841V476.69h282.483V164.193l52.966,38.841L512,123.586   L397.241,35.31z" data-original="#DE4C3C" class="" data-old_color="#259e66"/>
</g><rect x="229.517" y="70.621" style="fill:#EBEBEB" width="52.966" height="17.655" data-original="#EBEBEB" class="active-path"/><path style="fill:#259E66" d="M424.607,56.408C367.21,202.39,256.441,321.086,114.759,388.414v88.276h282.483V164.193  l52.966,38.841L512,123.586L424.607,56.408z" data-original="#C94536" class="" data-old_color="#259e66"/></g> </svg>
